<svg xmlns="http://www.w3.org/2000/svg" xmlns:xlink="http://www.w3.org/1999/xlink" viewBox="0,0,256,256" width="24px" height="24px" fill-rule="nonzero" fill="#ffffff"><g fill="#ffffff" fill-rule="nonzero" stroke="none" stroke-width="1" stroke-linecap="butt" stroke-linejoin="miter" stroke-miterlimit="10" stroke-dasharray="" stroke-dashoffset="0" font-family="none" font-weight="none" font-size="none" text-anchor="none" style="mix-blend-mode: normal"><g transform="scale(10.66667,10.66667)"><path d="M7.5,2c-3.038,0 -5.5,2.462 -5.5,5.5c0,1.231 0.4088,2.3623 1.0918,3.2793c-0.054,0.4 -0.0918,0.8057 -0.0918,1.2207c0,4.971 4.029,9 9,9c0.415,0 0.8207,-0.0378 1.2207,-0.0918c0.917,0.683 2.0483,1.0918 3.2793,1.0918c3.038,0 5.5,-2.462 5.5,-5.5c0,-1.231 -0.4088,-2.3623 -1.0918,-3.2793c0.054,-0.4 0.0918,-0.8057 0.0918,-1.2207c0,-4.971 -4.029,-9 -9,-9c-0.415,0 -0.8207,0.0378 -1.2207,0.0918c-0.917,-0.683 -2.0483,-1.0918 -3.2793,-1.0918zM7.5,4c0.753,0 1.47494,0.24031 2.08594,0.69531l0.65234,0.48828l0.80859,-0.10937c0.374,-0.051 0.67713,-0.07422 0.95313,-0.07422c3.86,0 7,3.14 7,7c0,0.276 -0.02322,0.57813 -0.07422,0.95313l-0.10937,0.80859l0.48828,0.65234c0.455,0.611 0.69531,1.33294 0.69531,2.08594c0,1.93 -1.57,3.5 -3.5,3.5c-0.753,0 -1.47494,-0.24031 -2.08594,-0.69531l-0.65234,-0.48828l-0.80859,0.10938c-0.375,0.05 -0.67713,0.07422 -0.95312,0.07422c-3.86,0 -7,-3.14 -7,-7c0,-0.276 0.02322,-0.57812 0.07422,-0.95312l0.10938,-0.80859l-0.48828,-0.65234c-0.455,-0.611 -0.69531,-1.33294 -0.69531,-2.08594c0,-1.93 1.57,-3.5 3.5,-3.5zM11.84961,7c-3.76,0 -4.03711,2.20891 -4.03711,2.75391c0,1.084 0.62159,1.92598 1.68359,2.33398c1.129,0.434 2.49934,0.69425 3.27734,0.90625c1.217,0.333 1.0625,1.00356 1.0625,1.10156c0,1.03 -1.41072,1.29528 -2.01172,1.23828c-0.68,-0.064 -1.36894,0.1303 -2.08594,-1.3457c-0.128,-0.264 -0.36331,-0.8418 -1.07031,-0.8418c-0.306,0 -1.07031,0.23289 -1.07031,0.96289c0,1.432 1.59886,2.89063 4.38086,2.89063c1.454,0 4.16597,-0.50333 4.16797,-3.11133c0,-2.271 -2.29061,-2.66952 -3.97461,-3.10352c-0.461,-0.119 -2.17969,-0.30898 -2.17969,-1.20898c0,-0.267 0.3737,-0.9082 1.7207,-0.9082c1.387,0 1.68905,0.64933 1.87305,0.98633c0.154,0.267 0.28055,0.47327 0.43555,0.57227c0.615,0.393 1.176,0.09177 1.375,-0.11523c0.199,-0.207 0.29883,-0.43531 0.29883,-0.69531c0,-1.131 -1.3377,-2.41602 -3.8457,-2.41602z"></path></g></g></svg>